{"title":"Last Kung Fu Monk (2010) BRRip XviD AC3-FWOLF","uid":11660480,"size":1357786990,"categoryP":"video","categoryS":"movies","magnet":"?xt=urn:btih:31221655a9ead1a02986e5215adf3194b6df26c0&amp;dn=Last+Kung+Fu+Monk+%282010%29+BRRip+XviD+AC3-FWOLF&amp;tr=udp%3A%2F%2Ftracker.openbittorrent.com%3A80&amp;tr=udp%3A%2F%2Fopen.demonii.com%3A1337&amp;tr=udp%3A%2F%2Ftracker.coppersurfer.tk%3A6969&amp;tr=udp%3A%2F%2Fexodus.desync.com%3A6969","seeders":0,"leechers":1,"uploader":"TvTeam","files":5,"time":1417990967,"description":" &lt;a href=&quot;https://www.torrenting.com&quot; rel=&quot;nofollow&quot; target=&quot;_NEW&quot;&gt;https://www.torrenting.com&lt;/a&gt;\n\nSign up is OPEN - for time being. Come and have fun.Last Kung Fu Monk (2010) BRRip XviD AC3-FWOLF\n\nimdb.... &lt;a href=&quot;\nhttp://www.imdb.com/title/tt1527823/&quot; rel=&quot;nofollow&quot; target=&quot;_NEW&quot;&gt;\nhttp://www.imdb.com/title/tt1527823/&lt;/a&gt;\n\n\nA Shaolin Monk comes to the United States to take\ncare of his deceased brother's son. He establishes \na school with a former student who leads him into \ntrouble with the Russian Mafia.\n\n\n\nDirector: Peng Zhang Li\n\nWriters:  Peng Zhang Li (screenwriter), Todd McGorry\n\n   \nStars:    Cindy Carino, Robert Christie, Matt Harlan Cohen\n\n\nFormat                                   : AVI\nFormat/Info                              : Audio Video Interleave\nFile size                                : 1.25 GiB\nDuration                                 : 1h 22mn\nOverall bit rate                         : 2 177 Kbps\n\nVideo\nID                                       : 0\nFormat                                   : MPEG-4 Visual\nFormat profile                           : Advanced Simple@L5\nFormat settings, BVOP                    : 2\nFormat settings, QPel                    : Yes\nFormat settings, GMC                     : No warppoints\nFormat settings, Matrix                  : Default (H.263)\nCodec ID                                 : XVID\nCodec ID/Hint                            : XviD\nDuration                                 : 1h 22mn\nBit rate                                 : 1 721 Kbps\nWidth                                    : 720 pixels\nHeight                                   : 400 pixels\nDisplay aspect ratio                     : 16:9\nFrame rate                               : 25.000 fps\nColor space                              : YUV\nChroma subsampling                       : 4:2:0\nBit depth                                : 8 bits\nScan type                                : Progressive\nCompression mode                         : Lossy\nBits/(Pixel*Frame)                       : 0.239\nStream size                              : 1 010 MiB (79%)\nWriting library                          : XviD 1.2.1 (UTC 2008-12-04)\n\nAudio\nID                                       : 1\nFormat                                   : AC-3\nFormat/Info                              : Audio Coding 3\nMode extension                           : CM (complete main)\nFormat settings, Endianness              : Big\nCodec ID                                 : 2000\nDuration                                 : 1h 22mn\nBit rate mode                            : Constant\nBit rate                                 : 448 Kbps\nChannel(s)                               : 6 channels\nChannel positions                        : Front: L C R, Side: L R, LFE\nSampling rate                            : 48.0 KHz\nBit depth                                : 16 bits\nCompression mode                         : Lossy\nStream size                              : 263 MiB (21%)\nAlignment                                : Aligned on interleaves\nInterleave, duration                     : 64 ms (1.60 video frames)\nInterleave, preload duration             : 192 ms\nTitle                                    : English\n\n\n\n\n\nEncoded....................FWOLF              \n\nSource.....................720p BluRay NOSCREENS (Thanks!)\n\nSample.....................Yes\n\nSubs.......................(srt)No\n\n\n\n\n\n[img]http://s18.postimg.org/wxol24ykp/image.png[/img]\n\n\n\n\n[img]http://s14.postimg.org/85aq5zyr5/image.png[/img]\n\n\n\n\n[img]http://s13.postimg.org/msf1ecjtz/image.png[/img]\n\n\n\n\nGreetz To: PsiX | Blacksheep | CFR | tomcat-12...\n.....and all P2P Encoders and Groups","torrent":{"xt":"urn:btih:31221655a9ead1a02986e5215adf3194b6df26c0","amp;dn":"Last+Kung+Fu+Monk+%282010%29+BRRip+XviD+AC3-FWOLF","amp;tr":["udp%3A%2F%2Ftracker.openbittorrent.com%3A80","udp%3A%2F%2Fopen.demonii.com%3A1337","udp%3A%2F%2Ftracker.coppersurfer.tk%3A6969","udp%3A%2F%2Fexodus.desync.com%3A6969"],"infoHash":"31221655a9ead1a02986e5215adf3194b6df26c0","infoHashBuffer":{"type":"Buffer","data":[49,34,22,85,169,234,209,160,41,134,229,33,90,223,49,148,182,223,38,192]},"announce":[],"urlList":[]}}